<svg width="108" height="108" viewBox="0 0 108 108" fill="none" xmlns="http://www.w3.org/2000/svg">
<rect width="108" height="108" rx="54" fill="url(#paint0_linear_169_822)"/>
<rect x="11" y="11" width="86" height="86" rx="43" fill="white"/>
<path d="M44.8077 66.2565L61.9208 49.1433L61.9208 64.0963C61.9208 65.2913 62.9013 66.2718 64.0964 66.2718C65.2914 66.2718 66.2566 65.3066 66.2566 64.1116L66.2566 43.919C66.2566 42.724 65.2914 41.7588 64.0964 41.7588L43.9037 41.7281C42.7087 41.7281 41.7435 42.6933 41.7435 43.8883C41.7435 45.0833 42.7087 46.0485 43.9037 46.0485L58.8567 46.0792L41.7435 63.1923C40.9009 64.035 40.9009 65.4138 41.7435 66.2565C42.5862 67.0991 43.965 67.0991 44.8077 66.2565Z" fill="url(#paint1_linear_169_822)"/>
<rect x="11" y="11" width="86" height="86" rx="43" stroke="url(#paint2_linear_169_822)" stroke-width="2"/>
<defs>
<linearGradient id="paint0_linear_169_822" x1="6.3245e-07" y1="53.5046" x2="108" y2="53.5046" gradientUnits="userSpaceOnUse">
<stop stop-color="white"/>
<stop offset="1" stop-color="white" stop-opacity="0"/>
</linearGradient>
<linearGradient id="paint1_linear_169_822" x1="77.2491" y1="54.0153" x2="45.3777" y2="76.38" gradientUnits="userSpaceOnUse">
<stop stop-color="#00796D"/>
<stop offset="1" stop-color="#38C682"/>
</linearGradient>
<linearGradient id="paint2_linear_169_822" x1="98" y1="98" x2="-2.11054" y2="80.9" gradientUnits="userSpaceOnUse">
<stop stop-color="#00796D"/>
<stop offset="1" stop-color="#38C682"/>
</linearGradient>
</defs>
</svg>
