<svg width="548" height="184" viewBox="0 0 548 184" fill="none" xmlns="http://www.w3.org/2000/svg">
<rect y="0.153809" width="548" height="183" rx="16" fill="#0C111F"/>
<g clip-path="url(#clip0_171_1611)">
<path fill-rule="evenodd" clip-rule="evenodd" d="M112.901 60.7198C114.493 58.0481 113.263 55.8823 110.152 55.8823H90.4434C87.3334 55.8823 83.5216 58.0482 81.9296 60.7198L37.8569 134.682C36.2649 137.354 37.4955 139.519 40.6055 139.519H82.8397C85.9497 139.519 89.7614 137.354 91.3534 134.682L107.576 107.458C109.168 104.786 107.937 102.621 104.827 102.621H93.5644C90.4544 102.621 89.2238 100.455 90.8158 97.783L112.901 60.7198Z" fill="url(#paint0_linear_171_1611)"/>
<rect width="47.8653" height="59.1278" rx="2.81561" transform="matrix(1 0 -0.511893 0.859049 131.437 43.7885)" fill="url(#paint1_linear_171_1611)"/>
<rect width="36.6029" height="36.6029" rx="2.81561" transform="matrix(1 0 -0.511893 0.859049 119.371 101.838)" fill="#F5921E"/>
</g>
<path d="M224.27 116.654H213.136L238.26 67.5086H251.65L260.433 116.654H249.299L243.323 78.7391H242.94L224.27 116.654ZM226.814 97.3365H253.114L251.722 105.447H225.422L226.814 97.3365ZM278.743 131.244C275.415 131.244 272.639 130.788 270.416 129.876C268.208 128.98 266.528 127.756 265.376 126.204C264.241 124.653 263.617 122.909 263.505 120.973L273.199 119.701C273.375 120.453 273.711 121.149 274.207 121.789C274.719 122.429 275.447 122.941 276.391 123.325C277.351 123.709 278.591 123.901 280.11 123.901C282.334 123.901 284.27 123.357 285.918 122.269C287.565 121.197 288.581 119.397 288.965 116.87L290.069 110.127H289.637C289.029 111.151 288.197 112.118 287.141 113.03C286.102 113.942 284.83 114.686 283.326 115.262C281.838 115.838 280.118 116.126 278.167 116.126C275.383 116.126 272.967 115.486 270.92 114.206C268.888 112.91 267.416 110.935 266.504 108.279C265.608 105.607 265.496 102.232 266.168 98.1524C266.872 93.977 268.136 90.4894 269.96 87.6898C271.784 84.8902 273.943 82.7945 276.439 81.4027C278.935 80.0109 281.534 79.315 284.238 79.315C286.302 79.315 287.965 79.6669 289.229 80.3709C290.509 81.0588 291.493 81.9226 292.181 82.9625C292.869 83.9863 293.357 84.9942 293.645 85.9861H294.052L295.06 79.7949H305.211L299.02 117.014C298.524 120.165 297.332 122.789 295.444 124.885C293.573 126.996 291.197 128.58 288.317 129.636C285.438 130.708 282.246 131.244 278.743 131.244ZM282.582 108.447C284.214 108.447 285.678 108.039 286.973 107.223C288.285 106.391 289.381 105.207 290.261 103.672C291.141 102.12 291.757 100.264 292.109 98.1044C292.461 95.9447 292.453 94.0729 292.085 92.4892C291.733 90.8894 291.045 89.6496 290.021 88.7697C289.013 87.8898 287.685 87.4499 286.038 87.4499C284.342 87.4499 282.854 87.9058 281.574 88.8177C280.294 89.7136 279.231 90.9614 278.383 92.5612C277.551 94.1609 276.967 96.0087 276.631 98.1044C276.279 100.232 276.263 102.072 276.583 103.624C276.919 105.159 277.583 106.351 278.575 107.199C279.566 108.031 280.902 108.447 282.582 108.447ZM323.904 117.374C320.129 117.374 317.001 116.606 314.522 115.07C312.042 113.518 310.298 111.327 309.29 108.495C308.298 105.647 308.13 102.28 308.786 98.3923C309.426 94.6009 310.714 91.2733 312.65 88.4097C314.602 85.5461 317.049 83.3144 319.993 81.7147C322.936 80.1149 326.216 79.315 329.831 79.315C332.263 79.315 334.463 79.7069 336.431 80.4908C338.414 81.2587 340.062 82.4266 341.374 83.9943C342.686 85.5461 343.582 87.4899 344.061 89.8255C344.557 92.1612 344.549 94.8968 344.038 98.0324L343.582 100.84H312.482L313.466 94.5049H334.967C335.207 93.0331 335.111 91.7293 334.679 90.5934C334.247 89.4576 333.527 88.5697 332.519 87.9298C331.511 87.2739 330.271 86.9459 328.8 86.9459C327.296 86.9459 325.888 87.3139 324.576 88.0498C323.264 88.7857 322.161 89.7535 321.265 90.9534C320.385 92.1372 319.817 93.425 319.561 94.8168L318.433 101.104C318.113 103.04 318.177 104.647 318.625 105.927C319.089 107.207 319.889 108.167 321.025 108.807C322.161 109.431 323.6 109.743 325.344 109.743C326.48 109.743 327.544 109.583 328.536 109.263C329.544 108.943 330.439 108.471 331.223 107.847C332.007 107.207 332.647 106.415 333.143 105.471L342.478 106.095C341.614 108.367 340.302 110.351 338.542 112.046C336.783 113.726 334.663 115.038 332.183 115.982C329.719 116.91 326.96 117.374 323.904 117.374ZM361.477 95.3448L357.926 116.654H347.727L353.87 79.7949H363.589L362.533 86.298H362.941C364.109 84.1383 365.756 82.4346 367.884 81.1867C370.028 79.9389 372.468 79.315 375.203 79.315C377.763 79.315 379.899 79.8749 381.61 80.9948C383.338 82.1146 384.554 83.7064 385.258 85.7701C385.978 87.8338 386.098 90.3055 385.618 93.1851L381.682 116.654H371.46L375.083 95.0088C375.451 92.7531 375.163 90.9934 374.219 89.7296C373.291 88.4497 371.796 87.8098 369.732 87.8098C368.356 87.8098 367.092 88.1058 365.94 88.6977C364.789 89.2896 363.821 90.1535 363.037 91.2893C362.269 92.4092 361.749 93.761 361.477 95.3448ZM406.393 117.374C402.633 117.374 399.522 116.574 397.058 114.974C394.594 113.358 392.859 111.119 391.851 108.255C390.859 105.375 390.675 102.024 391.299 98.2004C391.907 94.4249 393.171 91.1214 395.09 88.2897C397.01 85.4581 399.45 83.2585 402.409 81.6907C405.369 80.1069 408.705 79.315 412.416 79.315C416.159 79.315 419.263 80.1229 421.727 81.7387C424.19 83.3384 425.926 85.5781 426.934 88.4577C427.942 91.3373 428.134 94.6889 427.51 98.5123C426.886 102.272 425.606 105.567 423.67 108.399C421.735 111.231 419.295 113.438 416.351 115.022C413.408 116.59 410.088 117.374 406.393 117.374ZM407.401 109.455C409.128 109.455 410.656 108.967 411.984 107.991C413.328 106.999 414.44 105.655 415.32 103.96C416.215 102.248 416.839 100.312 417.191 98.1524C417.543 96.0247 417.567 94.1369 417.263 92.4892C416.959 90.8254 416.319 89.5136 415.344 88.5537C414.384 87.5938 413.064 87.1139 411.384 87.1139C409.656 87.1139 408.121 87.6098 406.777 88.6017C405.433 89.5776 404.321 90.9214 403.441 92.6331C402.561 94.3449 401.945 96.2886 401.593 98.4643C401.258 100.576 401.234 102.464 401.522 104.128C401.809 105.775 402.441 107.079 403.417 108.039C404.393 108.983 405.721 109.455 407.401 109.455ZM444.955 95.3448L441.404 116.654H431.205L437.349 79.7949H447.067L446.011 86.298H446.419C447.587 84.1383 449.235 82.4346 451.363 81.1867C453.506 79.9389 455.946 79.315 458.682 79.315C461.241 79.315 463.377 79.8749 465.089 80.9948C466.816 82.1146 468.032 83.7064 468.736 85.7701C469.456 87.8338 469.576 90.3055 469.096 93.1851L465.161 116.654H454.938L458.562 95.0088C458.93 92.7531 458.642 90.9934 457.698 89.7296C456.77 88.4497 455.274 87.8098 453.21 87.8098C451.835 87.8098 450.571 88.1058 449.419 88.6977C448.267 89.2896 447.299 90.1535 446.515 91.2893C445.747 92.4092 445.227 93.761 444.955 95.3448ZM489.871 117.374C486.096 117.374 482.968 116.606 480.489 115.07C478.009 113.518 476.265 111.327 475.257 108.495C474.265 105.647 474.097 102.28 474.753 98.3923C475.393 94.6009 476.681 91.2733 478.617 88.4097C480.569 85.5461 483.016 83.3144 485.96 81.7147C488.903 80.1149 492.183 79.315 495.798 79.315C498.23 79.315 500.43 79.7069 502.397 80.4908C504.381 81.2587 506.029 82.4266 507.341 83.9943C508.653 85.5461 509.548 87.4899 510.028 89.8255C510.524 92.1612 510.516 94.8968 510.004 98.0324L509.548 100.84H478.449L479.433 94.5049H500.934C501.174 93.0331 501.078 91.7293 500.646 90.5934C500.214 89.4576 499.494 88.5697 498.486 87.9298C497.478 87.2739 496.238 86.9459 494.767 86.9459C493.263 86.9459 491.855 87.3139 490.543 88.0498C489.231 88.7857 488.127 89.7535 487.232 90.9534C486.352 92.1372 485.784 93.425 485.528 94.8168L484.4 101.104C484.08 103.04 484.144 104.647 484.592 105.927C485.056 107.207 485.856 108.167 486.992 108.807C488.127 109.431 489.567 109.743 491.311 109.743C492.447 109.743 493.511 109.583 494.503 109.263C495.51 108.943 496.406 108.471 497.19 107.847C497.974 107.207 498.614 106.415 499.11 105.471L508.445 106.095C507.581 108.367 506.269 110.351 504.509 112.046C502.749 113.726 500.63 115.038 498.15 115.982C495.686 116.91 492.927 117.374 489.871 117.374Z" fill="white"/>
<defs>
<linearGradient id="paint0_linear_171_1611" x1="88.4709" y1="139.519" x2="46.6371" y2="110.021" gradientUnits="userSpaceOnUse">
<stop stop-color="#00796D"/>
<stop offset="1" stop-color="#38C682"/>
</linearGradient>
<linearGradient id="paint1_linear_171_1611" x1="47.8653" y1="59.1278" x2="-7.12454" y2="51.524" gradientUnits="userSpaceOnUse">
<stop stop-color="#00796D"/>
<stop offset="1" stop-color="#38C682"/>
</linearGradient>
<clipPath id="clip0_171_1611">
<rect width="146.412" height="95.7307" fill="white" transform="translate(34.4005 43.7885)"/>
</clipPath>
</defs>
</svg>
