<svg width="1362" height="681" viewBox="0 0 1362 681" fill="none" xmlns="http://www.w3.org/2000/svg">
<path fill-rule="evenodd" clip-rule="evenodd" d="M345.643 42.1453C319.145 56.8009 292.233 71.6852 255.005 79.7347C217.651 87.813 170.285 90.6017 123.494 93.3566H123.494C106.582 94.3523 89.7445 95.3436 73.4824 96.5786C42.8334 98.9062 14.2222 102.099 -9.05353 107.807C-32.352 113.522 -50.1918 121.732 -59.4239 134.012C-79.0117 160.067 -82.0393 194.086 -64.2071 230.757C-46.3652 267.447 -7.63667 306.785 56.2729 343.34C119.892 379.731 202.089 399.864 288.759 418.003C303.402 421.068 318.172 424.075 333.001 427.095C405.913 441.942 480.243 457.077 547.808 480.692C606.91 501.348 656.72 528.294 705.832 554.863C712.399 558.416 718.954 561.962 725.517 565.486C781.168 595.362 837.414 623.616 906.851 640.603C982.967 659.231 1061.89 672.325 1132.62 677.518C1203.36 682.712 1265.86 679.999 1309.15 667.045C1330.35 660.704 1342.7 651.277 1349.41 639.897C1356.12 628.508 1357.24 615.079 1355.77 600.63C1354.57 588.733 1351.63 576.2 1348.67 563.597L1348.67 563.596C1348.03 560.886 1347.4 558.172 1346.78 555.462C1343.27 540.17 1340.3 524.962 1340.99 510.975C1341.65 497.83 1345.29 485.248 1349.28 472.824C1349.86 471.023 1350.45 469.226 1351.03 467.431C1354.49 456.822 1357.93 446.287 1359.72 435.507C1361.82 422.919 1361.67 410.024 1356.71 396.363C1351.74 382.697 1341.93 368.226 1324.64 352.512C1289.47 320.555 1234.19 291.481 1171.84 263.4C1140.67 249.363 1107.75 235.58 1074.71 221.812C1072.39 220.844 1070.07 219.877 1067.75 218.909L1067.74 218.907C1037.02 206.109 1006.3 193.311 976.894 180.322C940.941 164.441 905.273 146.895 869.562 129.174C866.239 127.525 862.916 125.875 859.592 124.224C827.191 108.133 794.729 92.0113 761.947 76.9625C689.657 43.7773 615.843 15.825 537.8 4.95241C459.671 -5.93278 414.74 7.18671 376.496 25.7875C365.901 30.9411 355.802 36.5264 345.643 42.1453ZM376.059 24.8883C414.473 6.20434 459.604 -6.95176 537.938 3.96198C616.123 14.8543 690.04 42.8528 762.364 76.0537C795.16 91.1089 827.635 107.237 860.033 123.327L860.034 123.327C863.359 124.978 866.683 126.629 870.007 128.279C905.718 146 941.368 163.536 977.298 179.407C1006.69 192.391 1037.4 205.185 1068.13 217.983L1068.13 217.984L1068.13 217.986L1068.13 217.987L1068.14 217.988L1068.56 218.166L1068.97 218.334L1069.34 218.491C1071.26 219.29 1073.18 220.09 1075.1 220.889C1108.14 234.656 1141.07 248.445 1172.25 262.488C1234.6 290.57 1290.02 319.698 1325.31 351.772C1342.69 367.564 1352.61 382.165 1357.65 396.021C1362.69 409.882 1362.83 422.958 1360.71 435.671C1358.9 446.532 1355.44 457.148 1351.98 467.752C1351.4 469.545 1350.81 471.337 1350.24 473.13C1346.25 485.549 1342.64 498.022 1341.99 511.025C1341.3 524.858 1344.25 539.944 1347.75 555.238C1348.36 557.922 1349 560.612 1349.63 563.302L1349.64 563.346L1349.64 563.348C1352.6 575.951 1355.56 588.561 1356.77 600.529C1358.24 615.074 1357.14 628.752 1350.27 640.405C1343.4 652.067 1330.79 661.615 1309.44 668.003C1265.97 681.01 1203.33 683.712 1132.55 678.516C1061.76 673.318 982.775 660.214 906.613 641.574C837.047 624.556 780.708 596.25 725.044 566.367C718.478 562.841 711.921 559.294 705.353 555.741C656.236 529.17 606.499 502.264 547.478 481.636C479.983 458.046 405.734 442.926 332.822 428.079L332.815 428.078L332.812 428.077C317.981 425.057 303.206 422.048 288.554 418.982C201.896 400.845 119.551 380.687 55.7764 344.208C-8.23246 307.596 -47.1451 268.13 -65.1064 231.194C-83.0771 194.239 -80.0696 159.81 -60.2232 133.411L-59.93 133.632L-60.2232 133.411C-50.77 120.837 -32.6292 112.56 -9.29173 106.836C14.0685 101.107 42.7486 97.9098 73.4067 95.5815C89.7154 94.3429 106.583 93.3498 123.513 92.353H123.513L123.513 92.353L123.513 92.3529C170.279 89.5995 217.522 86.8179 254.794 78.7573C291.868 70.7411 318.592 55.9599 345.049 41.327L345.05 41.3268L345.05 41.3264L345.051 41.3262L345.051 41.3258C355.235 35.6932 365.379 30.0826 376.059 24.8883ZM381.999 75.5385C358.429 88.5577 334.482 101.785 301.362 108.938C268.134 116.114 226 118.591 184.381 121.038L184.38 121.038L184.379 121.038L184.379 121.038C169.338 121.922 154.364 122.803 139.903 123.9C112.643 125.967 87.1991 128.802 66.5017 133.872C45.7816 138.947 29.9311 146.237 21.7323 157.128C4.32467 180.252 1.63046 210.446 17.4831 243.002C33.3453 275.577 67.7813 310.511 124.619 342.976C181.196 375.292 254.296 393.173 331.383 409.285C344.398 412.006 357.527 414.676 370.708 417.356L370.712 417.357C435.569 430.546 501.692 443.993 561.797 464.975C614.374 483.324 658.684 507.262 702.371 530.864L702.371 530.864C708.207 534.017 714.032 537.164 719.864 540.29C769.36 566.827 819.381 591.921 881.129 607.011C948.829 623.553 1019.03 635.182 1081.94 639.795C1144.86 644.409 1200.44 642 1238.93 630.501C1257.77 624.869 1268.75 616.5 1274.7 606.408C1280.67 596.306 1281.66 584.392 1280.36 571.563C1279.28 561.003 1276.67 549.879 1274.04 538.689L1274.04 538.687L1274.04 538.683C1273.47 536.274 1272.9 533.861 1272.35 531.45C1269.24 517.867 1266.59 504.352 1267.2 491.919C1267.79 480.235 1271.03 469.053 1274.58 458.017C1274.84 457.2 1275.11 456.384 1275.37 455.569L1275.73 454.479L1276.14 453.222L1276.14 453.219L1276.14 453.218L1276.14 453.216L1276.14 453.215C1279.22 443.796 1282.27 434.446 1283.86 424.878C1285.73 413.704 1285.6 402.26 1281.19 390.137C1276.78 378.01 1268.07 365.163 1252.69 351.211C1221.42 322.832 1172.25 297.01 1116.8 272.068C1089.07 259.6 1059.79 247.358 1030.41 235.128C1028.35 234.271 1026.29 233.413 1024.23 232.556C996.896 221.186 969.563 209.815 943.404 198.276C911.424 184.168 879.698 168.583 847.935 152.843C844.977 151.377 842.018 149.909 839.058 148.442C810.242 134.15 781.373 119.832 752.219 106.467C687.923 76.9918 622.277 52.1662 552.871 42.51C483.392 32.8432 443.44 44.4944 409.434 61.0122C400.014 65.5879 391.034 70.548 381.999 75.5385ZM408.997 60.1127C443.174 43.512 483.325 31.8243 553.009 41.5195C622.557 51.1955 688.306 76.0672 752.635 105.558C781.804 118.93 810.688 133.255 839.502 147.546L843.421 149.489C845.074 150.309 846.727 151.128 848.379 151.947C880.143 167.687 911.85 183.263 943.808 197.361C969.955 208.895 997.277 220.262 1024.61 231.632L1024.62 231.635C1026.67 232.492 1028.73 233.349 1030.79 234.205C1060.18 246.434 1089.47 258.681 1117.21 271.156C1172.66 296.099 1221.96 321.975 1253.37 350.47L1253.03 350.841L1253.37 350.47C1268.82 364.501 1277.65 377.477 1282.13 389.796C1286.61 402.118 1286.73 413.743 1284.85 425.043C1283.24 434.693 1280.16 444.125 1277.09 453.543C1276.86 454.234 1276.64 454.926 1276.41 455.617L1276.09 456.604C1275.9 457.177 1275.72 457.75 1275.53 458.324C1271.98 469.354 1268.78 480.427 1268.2 491.969C1267.59 504.248 1270.21 517.641 1273.32 531.226C1273.87 533.623 1274.44 536.027 1275 538.431L1275.01 538.434C1277.64 549.627 1280.27 560.83 1281.35 571.462C1282.66 584.386 1281.68 596.55 1275.57 606.916C1269.44 617.291 1258.22 625.78 1239.21 631.459C1200.55 643.011 1144.82 645.409 1081.86 640.792C1018.89 636.175 948.638 624.536 880.892 607.982C819.014 592.861 768.9 567.715 719.391 541.172C713.556 538.043 707.73 534.896 701.894 531.743C658.203 508.139 613.964 484.24 561.467 465.919C501.432 444.962 435.39 431.531 370.534 418.341L370.531 418.341L370.527 418.34L370.514 418.337L370.495 418.333C357.32 415.654 344.195 412.985 331.178 410.264C254.103 394.154 180.855 376.249 124.123 343.844C67.1862 311.322 32.5658 276.261 16.584 243.44C0.592545 210.599 3.26668 179.995 20.9334 156.526C29.3534 145.341 45.5048 137.986 66.2638 132.901C87.0456 127.81 112.558 124.971 139.827 122.903C154.335 121.802 169.339 120.92 184.398 120.034L184.4 120.034C225.993 117.589 268.005 115.118 301.151 107.96C334.117 100.84 357.877 87.7164 381.406 74.7198C390.467 69.7152 399.493 64.7294 408.997 60.1127ZM349.876 138.789C378.681 132.569 399.513 121.065 420.008 109.748L420.009 109.747L420.01 109.746C427.863 105.41 435.667 101.101 443.851 97.1265C473.405 82.7746 508.127 72.6497 568.521 81.0503C628.855 89.4423 685.923 111.018 741.82 136.637C767.17 148.256 792.273 160.703 817.33 173.127L817.33 173.127L817.333 173.129C819.9 174.402 822.467 175.674 825.033 176.946C852.648 190.627 880.23 204.175 908.034 216.437C930.77 226.463 954.525 236.343 978.277 246.222C980.08 246.971 981.882 247.721 983.685 248.471C1009.23 259.1 1034.69 269.741 1058.79 280.578C1107.01 302.258 1149.74 324.699 1176.93 349.358C1190.29 361.481 1197.86 372.638 1201.69 383.167C1205.52 393.69 1205.63 403.625 1204.01 413.329C1202.63 421.642 1199.97 429.766 1197.3 437.955C1197.02 438.826 1196.73 439.698 1196.45 440.571C1196.28 441.088 1196.11 441.605 1195.95 442.123C1192.86 451.715 1190.04 461.442 1189.53 471.606C1188.99 482.423 1191.29 494.179 1194 505.985C1194.48 508.074 1194.97 510.165 1195.46 512.252L1195.47 512.278L1195.47 512.282C1197.75 522.008 1200.03 531.671 1200.96 540.845C1202.09 551.99 1201.22 562.33 1196.05 571.093C1190.88 579.847 1181.36 587.113 1164.98 592.005C1131.53 601.999 1083.22 604.094 1028.52 600.083C973.827 596.074 912.797 585.965 853.942 571.585C800.265 558.471 756.781 536.663 713.749 513.599C708.679 510.881 703.615 508.147 698.542 505.407C660.559 484.893 622.028 464.083 576.311 448.133C524.054 429.898 466.565 418.209 410.182 406.745L410.181 406.745L410.174 406.743C398.711 404.413 387.293 402.091 375.975 399.726C308.953 385.72 245.408 370.178 196.229 342.095C146.819 313.88 116.891 283.523 103.108 255.224C89.334 226.945 91.6777 200.727 106.796 180.651C113.91 171.204 127.672 164.872 145.684 160.461C163.674 156.056 185.791 153.592 209.49 151.795C222.06 150.842 235.077 150.077 248.153 149.308C284.339 147.181 320.981 145.027 349.876 138.789ZM568.658 80.0598C508.06 71.6308 473.139 81.7921 443.414 96.2269C435.145 100.242 427.294 104.578 419.415 108.929C398.961 120.224 378.316 131.625 349.664 137.811C320.852 144.032 284.332 146.179 248.172 148.305L248.168 148.305L248.166 148.305L248.165 148.305C235.074 149.075 222.029 149.841 209.415 150.798C185.706 152.596 163.52 155.064 145.446 159.49C127.395 163.91 113.333 170.308 105.997 180.049C90.6196 200.47 88.2961 227.098 102.209 255.662C116.112 284.207 146.224 314.691 195.733 342.963C245.066 371.135 308.76 386.701 375.77 400.705C387.103 403.073 398.53 405.396 409.999 407.729L410.002 407.729C466.385 419.193 523.794 430.866 575.981 449.077C621.618 464.999 660.076 485.769 698.063 506.284L698.063 506.285L698.087 506.298C703.153 509.034 708.211 511.765 713.276 514.48C756.322 537.551 799.899 559.411 853.704 572.556C912.606 586.948 973.691 597.066 1028.44 601.081C1083.19 605.094 1131.64 603.01 1165.27 592.963C1181.8 588.024 1191.58 580.638 1196.91 571.601C1202.24 562.574 1203.09 551.985 1201.95 540.744C1201.01 531.498 1198.72 521.755 1196.43 512.026L1196.43 512.008C1195.94 509.923 1195.45 507.84 1194.97 505.762C1192.27 493.953 1189.99 482.319 1190.53 471.656C1191.03 461.634 1193.81 452.016 1196.9 442.429C1197.01 442.079 1197.12 441.728 1197.24 441.377C1197.4 440.885 1197.56 440.393 1197.72 439.901C1197.89 439.359 1198.07 438.817 1198.25 438.275L1198.25 438.273C1200.92 430.089 1203.6 421.886 1205 413.493C1206.64 403.664 1206.53 393.548 1202.63 382.825C1198.73 372.105 1191.05 360.818 1177.6 348.618C1150.29 323.841 1107.42 301.347 1059.2 279.666C1035.09 268.823 1009.62 258.177 984.069 247.547C982.268 246.798 980.467 246.049 978.666 245.3L978.652 245.294C954.902 235.417 931.159 225.542 908.437 215.522C880.656 203.27 853.092 189.732 825.477 176.05C822.911 174.778 820.343 173.505 817.776 172.232L817.775 172.232C792.719 159.808 767.602 147.354 742.237 135.728C686.306 110.093 629.135 88.4716 568.658 80.0598ZM455.536 142.321C437.895 152.066 419.954 161.978 395.152 167.335C370.28 172.707 338.738 174.562 307.594 176.394C296.342 177.055 285.141 177.714 274.326 178.534C253.93 180.081 234.901 182.203 219.424 185.994C203.926 189.791 192.103 195.237 185.996 203.35C173.005 220.611 170.987 243.156 182.832 267.483C194.686 291.831 220.43 317.957 262.946 342.244C305.259 366.416 359.938 379.795 417.619 391.852C427.363 393.889 437.192 395.888 447.061 397.895C495.583 407.764 545.062 417.827 590.036 433.526C629.386 447.262 662.55 465.182 695.236 482.844L695.237 482.845L695.238 482.845L695.245 482.849L695.251 482.852C699.614 485.21 703.968 487.562 708.327 489.9C745.36 509.758 782.774 528.531 828.959 539.819C879.608 552.196 932.127 560.898 979.191 564.35C1026.27 567.803 1067.84 565.999 1096.62 557.399C1110.7 553.191 1118.88 546.944 1123.32 539.426C1127.76 531.9 1128.5 523.016 1127.53 513.427C1126.73 505.531 1124.77 497.214 1122.8 488.838C1122.38 487.034 1121.96 485.228 1121.54 483.423C1119.21 473.258 1117.22 463.128 1117.69 453.803C1118.12 445.043 1120.56 436.662 1123.21 428.403C1123.6 427.204 1123.99 426.008 1124.38 424.813L1124.38 424.809C1126.68 417.759 1128.96 410.772 1130.15 403.622C1131.54 395.276 1131.45 386.735 1128.16 377.689C1124.86 368.637 1118.36 359.04 1106.86 348.609C1083.48 327.386 1046.71 308.07 1005.22 289.404C984.475 280.075 962.568 270.914 940.579 261.762L938.814 261.028L935.943 259.833L935.942 259.832L935.938 259.831C915.493 251.324 895.044 242.816 875.474 234.182C851.542 223.624 827.802 211.96 804.036 200.181C801.824 199.084 799.611 197.987 797.398 196.889L797.396 196.888C775.834 186.193 754.234 175.479 732.422 165.477C684.318 143.422 635.211 124.849 583.294 117.625C531.334 110.395 501.466 119.11 476.044 131.46C469.006 134.879 462.293 138.588 455.536 142.321ZM475.607 130.561C501.2 118.127 531.267 109.376 583.432 116.635C635.491 123.879 684.7 142.497 732.838 164.568C754.665 174.576 776.277 185.296 797.835 195.99L797.84 195.992L797.933 196.038C800.116 197.121 802.298 198.203 804.48 199.285C828.247 211.064 851.969 222.719 875.877 233.267C895.439 241.897 915.879 250.402 936.327 258.91L940.964 260.839C962.951 269.99 984.871 279.156 1005.63 288.492C1047.12 307.158 1084.02 326.529 1107.54 347.868C1119.11 358.377 1125.73 368.104 1129.1 377.347C1132.46 386.594 1132.55 395.316 1131.14 403.787C1129.93 411.017 1127.63 418.084 1125.33 425.13L1125.33 425.131L1125.32 425.135L1125.29 425.245C1125.15 425.686 1125 426.126 1124.86 426.567C1124.63 427.281 1124.39 427.995 1124.16 428.709C1121.51 436.963 1119.11 445.235 1118.69 453.853C1118.23 463.024 1120.19 473.032 1122.52 483.199C1122.92 484.98 1123.34 486.765 1123.76 488.551L1123.77 488.587L1123.77 488.59C1125.74 496.966 1127.72 505.36 1128.52 513.326C1129.51 523.01 1128.78 532.144 1124.18 539.935C1119.58 547.734 1111.15 554.102 1096.91 558.357C1067.95 567.01 1026.23 568.803 979.118 565.347C931.991 561.89 879.417 553.179 828.721 540.791C782.408 529.471 744.901 510.647 707.855 490.781C703.496 488.444 699.143 486.092 694.784 483.737L694.772 483.73L694.761 483.724L694.76 483.724C662.069 466.059 628.977 448.179 589.706 434.47C544.803 418.796 495.405 408.749 446.883 398.88C437.009 396.871 427.171 394.871 417.414 392.831C359.745 380.776 304.918 367.373 262.45 343.112C219.834 318.769 193.907 292.514 181.933 267.921C169.95 243.309 171.947 220.354 185.197 202.749C191.525 194.342 203.649 188.829 219.187 185.023C234.747 181.211 253.845 179.085 274.25 177.537C285.112 176.713 296.343 176.053 307.614 175.39H307.614C338.732 173.56 370.151 171.712 394.941 166.357C419.589 161.033 437.343 151.225 454.943 141.502C461.726 137.755 468.485 134.021 475.607 130.561ZM442.05 195.533C462.692 191.074 477.63 182.82 492.307 174.711L492.309 174.71C497.927 171.606 503.506 168.524 509.351 165.684C530.482 155.417 555.308 148.171 598.51 154.183C641.679 160.191 682.516 175.636 722.526 193.982C740.671 202.303 758.64 211.216 776.577 220.115L776.581 220.117L779.485 221.558C780.354 221.988 781.222 222.419 782.09 222.849C801.858 232.648 821.605 242.351 841.51 251.135C857.791 258.318 874.8 265.396 891.806 272.472L895.669 274.08C913.959 281.693 932.18 289.313 949.43 297.074C983.945 312.601 1014.52 328.665 1033.95 346.309C1043.5 354.98 1048.91 362.953 1051.64 370.467C1054.37 377.975 1054.45 385.065 1053.3 391.998C1052.3 397.941 1050.41 403.749 1048.5 409.616L1048.46 409.736C1048.15 410.689 1047.83 411.643 1047.53 412.6C1045.32 419.471 1043.29 426.452 1042.93 433.752C1042.54 441.522 1044.2 449.959 1046.13 458.414C1046.48 459.917 1046.83 461.42 1047.18 462.921C1048.82 469.888 1050.44 476.8 1051.11 483.361C1051.92 491.329 1051.3 498.698 1047.62 504.937C1043.94 511.166 1037.16 516.352 1025.46 519.85C1001.54 526.999 966.977 528.499 927.826 525.628C888.687 522.757 845.007 515.52 802.881 505.226C764.476 495.837 733.363 480.225 702.561 463.708C698.943 461.767 695.328 459.814 691.707 457.857L691.673 457.839C664.486 443.148 636.896 428.239 604.16 416.81C566.742 403.747 525.579 395.374 485.219 387.164L485.201 387.16C477 385.492 468.832 383.831 460.736 382.138C412.758 372.107 367.292 360.98 332.108 340.88C296.753 320.68 275.356 298.957 265.506 278.724C255.666 258.511 257.345 239.792 268.13 225.463C273.19 218.738 282.999 214.213 295.887 211.056C308.752 207.904 324.575 206.139 341.538 204.852C350.529 204.17 359.841 203.623 369.197 203.072H369.197C395.106 201.548 421.354 200.004 442.05 195.533ZM598.647 153.193C555.242 147.152 530.216 154.434 508.914 164.784C502.983 167.666 497.357 170.775 491.714 173.893L491.713 173.893C477.078 181.979 462.327 190.129 441.839 194.555C421.225 199.009 395.099 200.546 369.217 202.069H369.217C359.842 202.62 350.5 203.17 341.463 203.855C324.49 205.143 308.599 206.912 295.649 210.084C282.722 213.252 272.613 217.843 267.331 224.861L267.73 225.162L267.331 224.861C256.287 239.535 254.628 258.664 264.607 279.162C274.576 299.64 296.158 321.491 331.612 341.748C366.95 361.937 412.565 373.089 460.531 383.117C468.646 384.813 476.828 386.478 485.04 388.148L485.041 388.148C525.4 396.358 566.483 404.715 603.83 417.754C636.485 429.154 664.003 444.024 691.194 458.717L691.196 458.718L691.234 458.739C694.854 460.695 698.469 462.648 702.088 464.589C732.903 481.114 764.109 496.777 802.643 506.197C844.816 516.503 888.551 523.749 927.753 526.625C966.942 529.499 1001.65 528.009 1025.74 520.808C1037.6 517.264 1044.63 511.956 1048.48 505.445C1052.31 498.943 1052.92 491.324 1052.1 483.261C1051.43 476.628 1049.79 469.638 1048.15 462.669C1047.8 461.174 1047.45 459.68 1047.11 458.191C1045.17 449.733 1043.55 441.418 1043.93 433.802C1044.28 426.644 1046.27 419.772 1048.48 412.906C1048.8 411.917 1049.12 410.928 1049.44 409.938L1049.44 409.934C1051.36 404.072 1053.28 398.185 1054.28 392.162C1055.46 385.104 1055.38 377.834 1052.58 370.125C1049.78 362.42 1044.26 354.318 1034.63 345.569C1015.06 327.808 984.357 311.69 949.841 296.162C932.576 288.395 914.342 280.769 896.053 273.157L892.195 271.551C875.186 264.474 858.185 257.399 841.914 250.22C822.031 241.446 802.302 231.752 782.534 221.953C780.699 221.043 778.863 220.133 777.026 219.222C759.089 210.323 741.105 201.401 722.943 193.073C682.899 174.712 641.959 159.22 598.647 153.193Z" fill="url(#paint0_linear_2_28)"/>
<defs>
<linearGradient id="paint0_linear_2_28" x1="642.506" y1="0.000218096" x2="642.506" y2="681" gradientUnits="userSpaceOnUse">
<stop stop-color="#E1E1E1"/>
<stop offset="1" stop-color="#E1E1E1" stop-opacity="0"/>
</linearGradient>
</defs>
</svg>
